<svg width="60" height="60" viewBox="0 0 60 60" fill="none" xmlns="http://www.w3.org/2000/svg">
<rect width="60" height="60" rx="30" fill="white"/>
<path d="M23.947 16.5244C22.847 15.5244 21.447 14.9244 19.947 14.9244C17.447 14.9244 15.147 16.5244 14.347 18.9244C13.247 22.1244 14.847 25.5244 17.947 26.6244V30.9244H41.947V26.6244C42.647 26.3244 43.347 25.9244 43.947 25.4244C46.347 23.1244 46.547 19.4244 44.347 16.9244C42.047 14.5244 38.347 14.3244 35.847 16.5244C35.647 13.6244 33.347 11.2244 30.347 11.0244C27.047 10.7244 24.147 13.2244 23.947 16.5244Z" fill="#233862"/>
<path d="M17.947 34.9244V37.9244C17.947 44.5244 23.347 49.9244 29.947 49.9244C36.547 49.9244 41.947 44.5244 41.947 37.9244V34.9244H17.947Z" fill="#233862"/>
</svg>
