<svg width="296" height="77" viewBox="0 0 296 77" fill="none" xmlns="http://www.w3.org/2000/svg">
<rect width="296" height="77" fill="#233862"/>
<rect x="15" y="8" width="60" height="60" rx="30" fill="white"/>
<path d="M38.947 24.5244C37.847 23.5244 36.447 22.9244 34.947 22.9244C32.447 22.9244 30.147 24.5244 29.347 26.9244C28.247 30.1244 29.847 33.5244 32.947 34.6244V38.9244H56.947V34.6244C57.647 34.3244 58.347 33.9244 58.947 33.4244C61.347 31.1244 61.547 27.4244 59.347 24.9244C57.047 22.5244 53.347 22.3244 50.847 24.5244C50.647 21.6244 48.347 19.2244 45.347 19.0244C42.047 18.7244 39.147 21.2244 38.947 24.5244Z" fill="#233862"/>
<path d="M32.947 42.9244V45.9244C32.947 52.5244 38.347 57.9244 44.947 57.9244C51.547 57.9244 56.947 52.5244 56.947 45.9244V42.9244H32.947Z" fill="#233862"/>
<path d="M91.5227 53V23.9091H95.0455V38.3409H95.3864L108.455 23.9091H113.057L100.841 37.0341L113.057 53H108.795L98.6818 39.4773L95.0455 43.5682V53H91.5227ZM140.795 38.4545C140.795 41.5227 140.241 44.1742 139.133 46.4091C138.025 48.6439 136.505 50.3674 134.573 51.5795C132.641 52.7917 130.435 53.3977 127.954 53.3977C125.473 53.3977 123.266 52.7917 121.335 51.5795C119.403 50.3674 117.883 48.6439 116.775 46.4091C115.667 44.1742 115.113 41.5227 115.113 38.4545C115.113 35.3864 115.667 32.7348 116.775 30.5C117.883 28.2652 119.403 26.5417 121.335 25.3295C123.266 24.1174 125.473 23.5114 127.954 23.5114C130.435 23.5114 132.641 24.1174 134.573 25.3295C136.505 26.5417 138.025 28.2652 139.133 30.5C140.241 32.7348 140.795 35.3864 140.795 38.4545ZM137.386 38.4545C137.386 35.9356 136.964 33.8097 136.121 32.0767C135.288 30.3438 134.156 29.0322 132.727 28.142C131.306 27.2519 129.715 26.8068 127.954 26.8068C126.192 26.8068 124.597 27.2519 123.167 28.142C121.746 29.0322 120.615 30.3438 119.772 32.0767C118.939 33.8097 118.522 35.9356 118.522 38.4545C118.522 40.9735 118.939 43.0994 119.772 44.8324C120.615 46.5653 121.746 47.8769 123.167 48.767C124.597 49.6572 126.192 50.1023 127.954 50.1023C129.715 50.1023 131.306 49.6572 132.727 48.767C134.156 47.8769 135.288 46.5653 136.121 44.8324C136.964 43.0994 137.386 40.9735 137.386 38.4545ZM146.718 53V23.9091H150.241V38.3409H150.582L163.65 23.9091H168.252L156.036 37.0341L168.252 53H163.991L153.877 39.4773L150.241 43.5682V53H146.718ZM188.721 31.1818C188.55 29.7424 187.859 28.625 186.647 27.8295C185.435 27.0341 183.948 26.6364 182.187 26.6364C180.899 26.6364 179.772 26.8447 178.806 27.2614C177.85 27.678 177.102 28.2509 176.562 28.9801C176.031 29.7093 175.766 30.5379 175.766 31.4659C175.766 32.2424 175.951 32.91 176.32 33.4688C176.699 34.018 177.182 34.4773 177.769 34.8466C178.356 35.2064 178.972 35.5047 179.616 35.7415C180.26 35.9687 180.852 36.1534 181.391 36.2955L184.346 37.0909C185.103 37.2898 185.946 37.5644 186.874 37.9148C187.812 38.2652 188.707 38.7434 189.559 39.3494C190.421 39.946 191.131 40.7131 191.69 41.6506C192.248 42.5881 192.528 43.7386 192.528 45.1023C192.528 46.6742 192.116 48.0947 191.292 49.3636C190.478 50.6326 189.284 51.6411 187.712 52.3892C186.15 53.1373 184.251 53.5114 182.016 53.5114C179.933 53.5114 178.129 53.1752 176.604 52.5028C175.089 51.8305 173.896 50.893 173.025 49.6903C172.163 48.4877 171.675 47.0909 171.562 45.5H175.198C175.293 46.5985 175.662 47.5076 176.306 48.2273C176.96 48.9375 177.783 49.4678 178.778 49.8182C179.781 50.1591 180.861 50.3295 182.016 50.3295C183.361 50.3295 184.568 50.1117 185.638 49.6761C186.709 49.2311 187.556 48.6155 188.181 47.8295C188.806 47.0341 189.119 46.1061 189.119 45.0455C189.119 44.0795 188.849 43.2936 188.309 42.6875C187.769 42.0814 187.059 41.589 186.178 41.2102C185.298 40.8314 184.346 40.5 183.323 40.2159L179.744 39.1932C177.471 38.5398 175.672 37.607 174.346 36.3949C173.02 35.1828 172.357 33.5966 172.357 31.6364C172.357 30.0076 172.798 28.5871 173.678 27.375C174.568 26.1534 175.762 25.2064 177.258 24.5341C178.763 23.8523 180.444 23.5114 182.3 23.5114C184.175 23.5114 185.842 23.8475 187.3 24.5199C188.759 25.1828 189.914 26.0919 190.766 27.2472C191.628 28.4025 192.083 29.714 192.13 31.1818H188.721ZM198.32 23.9091H202.524L212.411 48.0568H212.751L222.638 23.9091H226.842V53H223.547V30.8977H223.263L214.172 53H210.99L201.899 30.8977H201.615V53H198.32V23.9091ZM235.099 53H231.406L242.087 23.9091H245.724L256.406 53H252.712L244.019 28.5114H243.792L235.099 53ZM236.462 41.6364H251.349V44.7614H236.462V41.6364ZM255.947 27.0341V23.9091H277.766V27.0341H268.618V53H265.095V27.0341H255.947Z" fill="white"/>
</svg>
