<svg width="265" height="60" viewBox="0 0 265 60" fill="none" xmlns="http://www.w3.org/2000/svg">
<rect width="60" height="60" rx="30" fill="#233862"/>
<path d="M23.947 16.5244C22.847 15.5244 21.447 14.9244 19.947 14.9244C17.447 14.9244 15.147 16.5244 14.347 18.9244C13.247 22.1244 14.847 25.5244 17.947 26.6244V30.9244H41.947V26.6244C42.647 26.3244 43.347 25.9244 43.947 25.4244C46.347 23.1244 46.547 19.4244 44.347 16.9244C42.047 14.5244 38.347 14.3244 35.847 16.5244C35.647 13.6244 33.347 11.2244 30.347 11.0244C27.047 10.7244 24.147 13.2244 23.947 16.5244Z" fill="white"/>
<path d="M17.947 34.9244V37.9244C17.947 44.5244 23.347 49.9244 29.947 49.9244C36.547 49.9244 41.947 44.5244 41.947 37.9244V34.9244H17.947Z" fill="white"/>
<path d="M76.5227 45V15.9091H80.0455V30.3409H80.3864L93.4545 15.9091H98.0568L85.8409 29.0341L98.0568 45H93.7955L83.6818 31.4773L80.0455 35.5682V45H76.5227ZM125.795 30.4545C125.795 33.5227 125.241 36.1742 124.133 38.4091C123.025 40.6439 121.505 42.3674 119.573 43.5795C117.641 44.7917 115.435 45.3977 112.954 45.3977C110.473 45.3977 108.266 44.7917 106.335 43.5795C104.403 42.3674 102.883 40.6439 101.775 38.4091C100.667 36.1742 100.113 33.5227 100.113 30.4545C100.113 27.3864 100.667 24.7348 101.775 22.5C102.883 20.2652 104.403 18.5417 106.335 17.3295C108.266 16.1174 110.473 15.5114 112.954 15.5114C115.435 15.5114 117.641 16.1174 119.573 17.3295C121.505 18.5417 123.025 20.2652 124.133 22.5C125.241 24.7348 125.795 27.3864 125.795 30.4545ZM122.386 30.4545C122.386 27.9356 121.964 25.8097 121.121 24.0767C120.288 22.3438 119.156 21.0322 117.727 20.142C116.306 19.2519 114.715 18.8068 112.954 18.8068C111.192 18.8068 109.597 19.2519 108.167 20.142C106.746 21.0322 105.615 22.3438 104.772 24.0767C103.939 25.8097 103.522 27.9356 103.522 30.4545C103.522 32.9735 103.939 35.0994 104.772 36.8324C105.615 38.5653 106.746 39.8769 108.167 40.767C109.597 41.6572 111.192 42.1023 112.954 42.1023C114.715 42.1023 116.306 41.6572 117.727 40.767C119.156 39.8769 120.288 38.5653 121.121 36.8324C121.964 35.0994 122.386 32.9735 122.386 30.4545ZM131.718 45V15.9091H135.241V30.3409H135.582L148.65 15.9091H153.252L141.036 29.0341L153.252 45H148.991L138.877 31.4773L135.241 35.5682V45H131.718ZM173.721 23.1818C173.55 21.7424 172.859 20.625 171.647 19.8295C170.435 19.0341 168.948 18.6364 167.187 18.6364C165.899 18.6364 164.772 18.8447 163.806 19.2614C162.85 19.678 162.102 20.2509 161.562 20.9801C161.031 21.7093 160.766 22.5379 160.766 23.4659C160.766 24.2424 160.951 24.91 161.32 25.4688C161.699 26.018 162.182 26.4773 162.769 26.8466C163.356 27.2064 163.972 27.5047 164.616 27.7415C165.26 27.9687 165.852 28.1534 166.391 28.2955L169.346 29.0909C170.103 29.2898 170.946 29.5644 171.874 29.9148C172.812 30.2652 173.707 30.7434 174.559 31.3494C175.421 31.946 176.131 32.7131 176.69 33.6506C177.248 34.5881 177.528 35.7386 177.528 37.1023C177.528 38.6742 177.116 40.0947 176.292 41.3636C175.478 42.6326 174.284 43.6411 172.712 44.3892C171.15 45.1373 169.251 45.5114 167.016 45.5114C164.933 45.5114 163.129 45.1752 161.604 44.5028C160.089 43.8305 158.896 42.893 158.025 41.6903C157.163 40.4877 156.675 39.0909 156.562 37.5H160.198C160.293 38.5985 160.662 39.5076 161.306 40.2273C161.96 40.9375 162.783 41.4678 163.778 41.8182C164.781 42.1591 165.861 42.3295 167.016 42.3295C168.361 42.3295 169.568 42.1117 170.638 41.6761C171.709 41.2311 172.556 40.6155 173.181 39.8295C173.806 39.0341 174.119 38.1061 174.119 37.0455C174.119 36.0795 173.849 35.2936 173.309 34.6875C172.769 34.0814 172.059 33.589 171.178 33.2102C170.298 32.8314 169.346 32.5 168.323 32.2159L164.744 31.1932C162.471 30.5398 160.672 29.607 159.346 28.3949C158.02 27.1828 157.357 25.5966 157.357 23.6364C157.357 22.0076 157.798 20.5871 158.678 19.375C159.568 18.1534 160.762 17.2064 162.258 16.5341C163.763 15.8523 165.444 15.5114 167.3 15.5114C169.175 15.5114 170.842 15.8475 172.3 16.5199C173.759 17.1828 174.914 18.0919 175.766 19.2472C176.628 20.4025 177.083 21.714 177.13 23.1818H173.721ZM183.32 15.9091H187.524L197.411 40.0568H197.751L207.638 15.9091H211.842V45H208.547V22.8977H208.263L199.172 45H195.99L186.899 22.8977H186.615V45H183.32V15.9091ZM220.099 45H216.406L227.087 15.9091H230.724L241.406 45H237.712L229.019 20.5114H228.792L220.099 45ZM221.462 33.6364H236.349V36.7614H221.462V33.6364ZM240.947 19.0341V15.9091H262.766V19.0341H253.618V45H250.095V19.0341H240.947Z" fill="#233862"/>
</svg>
