<svg width="2645" height="2059" viewBox="0 0 2645 2059" fill="none" xmlns="http://www.w3.org/2000/svg">
<rect width="2645" height="2059" fill="white"/>
<circle cx="1362.5" cy="1811.5" r="658.5" fill="#FFB5AE"/>
<path d="M1271.76 1599.05C1271.76 1645.53 1259.95 1687.59 1240.87 1718.01C1221.8 1748.44 1195.51 1767.17 1166.55 1767.17C1137.59 1767.17 1111.3 1748.44 1092.22 1718.01C1073.15 1687.59 1061.34 1645.53 1061.34 1599.05C1061.34 1552.56 1073.15 1510.5 1092.22 1480.08C1111.3 1449.65 1137.59 1430.93 1166.55 1430.93C1195.51 1430.93 1221.8 1449.65 1240.87 1480.08C1259.95 1510.5 1271.76 1552.56 1271.76 1599.05Z" fill="black" stroke="black"/>
<ellipse cx="1549.17" cy="1599.05" rx="105.711" ry="168.621" fill="black"/>
<path d="M1061 2097C1252.31 2336.27 1503.44 2296.05 1663.29 2104.73" stroke="white" stroke-width="70" stroke-linecap="round"/>
<path fill-rule="evenodd" clip-rule="evenodd" d="M623.907 1299.44C398.613 1307.03 203.274 1138.19 181.094 910.687C158.008 673.9 331.247 463.232 568.034 440.146C651.867 431.973 732.426 448.408 802.546 483.56C825.272 287.877 983.235 127.411 1189.1 107.341C1401.02 86.6785 1591.89 221.815 1646.02 418.561C1711.46 361.735 1794.8 323.909 1887.95 314.827C2124.74 291.742 2335.23 463.145 2358.09 697.667C2380.96 932.189 2207.54 1141.02 1970.75 1164.11C1957.46 1165.4 1944.25 1166.09 1931.14 1166.18L1962.6 1488.8L654.8 1616.31L623.907 1299.44Z" fill="#9FD0F7"/>
<path d="M588.977 1075.14L1905.73 946.762L1928.15 1176.67L611.392 1305.05L588.977 1075.14Z" fill="white"/>
<path d="M0 1826H2645V3257H0V1826Z" fill="#D9D9D9"/>
<path d="M0 1826H2645V2059H0V1826Z" fill="#9FD0F7"/>
<ellipse cx="376.5" cy="1831" rx="237.5" ry="148" fill="#FFB5AE"/>
<ellipse cx="276.801" cy="1618.27" rx="149.387" ry="72.3193" transform="rotate(-90.4046 276.801 1618.27)" fill="#FFB5AE"/>
<ellipse cx="2372.5" cy="1854" rx="235.5" ry="148" fill="#FFB5AE"/>
<rect x="1.5" y="1.5" width="2643" height="2057" stroke="black"/>
<path d="M923.326 1219.2L912.153 1103.16L926.213 1101.81L931.756 1159.38L933.117 1159.24L979.735 1096.66L998.104 1094.89L954.386 1151.94L1009.28 1210.92L992.268 1212.56L946.707 1162.51L933.764 1180.23L937.386 1217.85L923.326 1219.2Z" fill="black"/>
<path d="M1114.4 1142.25C1115.58 1154.48 1114.39 1165.27 1110.83 1174.61C1107.26 1183.95 1101.86 1191.41 1094.61 1196.99C1087.37 1202.57 1078.79 1205.83 1068.89 1206.78C1058.99 1207.74 1049.95 1206.17 1041.77 1202.08C1033.59 1197.98 1026.87 1191.69 1021.59 1183.21C1016.31 1174.72 1013.08 1164.35 1011.9 1152.12C1010.72 1139.88 1011.91 1129.09 1015.48 1119.75C1019.04 1110.41 1024.44 1102.95 1031.69 1097.37C1038.93 1091.8 1047.51 1088.53 1057.41 1087.58C1067.31 1086.62 1076.35 1088.19 1084.53 1092.29C1092.71 1096.38 1099.43 1102.67 1104.72 1111.16C1110 1119.64 1113.23 1130.01 1114.4 1142.25ZM1100.8 1143.56C1099.83 1133.51 1097.33 1125.19 1093.3 1118.6C1089.31 1112.01 1084.29 1107.21 1078.24 1104.21C1072.23 1101.21 1065.71 1100.04 1058.68 1100.72C1051.65 1101.4 1045.45 1103.79 1040.08 1107.89C1034.76 1111.98 1030.74 1117.65 1028.04 1124.89C1025.38 1132.12 1024.54 1140.76 1025.5 1150.81C1026.47 1160.85 1028.95 1169.17 1032.94 1175.76C1036.97 1182.35 1041.99 1187.15 1048 1190.15C1054.05 1193.16 1060.59 1194.32 1067.62 1193.64C1074.65 1192.96 1080.83 1190.58 1086.16 1186.48C1091.53 1182.38 1095.54 1176.71 1098.2 1169.48C1100.9 1162.25 1101.76 1153.6 1100.8 1143.56Z" fill="black"/>
<path d="M1143.63 1197.99L1132.46 1081.95L1146.52 1080.6L1152.06 1138.16L1153.42 1138.03L1200.04 1075.44L1218.41 1073.68L1174.69 1130.72L1229.58 1189.71L1212.58 1191.35L1167.01 1141.3L1154.07 1159.01L1157.69 1196.63L1143.63 1197.99Z" fill="black"/>
<path d="M1302.9 1094.82C1301.67 1089.14 1298.48 1084.95 1293.34 1082.24C1288.19 1079.54 1282.11 1078.52 1275.08 1079.2C1269.94 1079.69 1265.52 1080.96 1261.82 1082.99C1258.17 1085.02 1255.4 1087.59 1253.53 1090.71C1251.69 1093.82 1250.95 1097.23 1251.31 1100.93C1251.6 1104.03 1252.6 1106.62 1254.29 1108.71C1256.01 1110.75 1258.11 1112.4 1260.6 1113.64C1263.08 1114.85 1265.65 1115.81 1268.31 1116.5C1270.97 1117.16 1273.4 1117.67 1275.61 1118.03L1287.71 1120.07C1290.81 1120.57 1294.28 1121.34 1298.12 1122.38C1302 1123.42 1305.75 1124.98 1309.39 1127.07C1313.05 1129.12 1316.18 1131.91 1318.77 1135.43C1321.36 1138.96 1322.92 1143.44 1323.44 1148.88C1324.05 1155.15 1322.95 1160.97 1320.15 1166.35C1317.39 1171.73 1313.01 1176.21 1307.02 1179.8C1301.07 1183.38 1293.64 1185.6 1284.72 1186.46C1276.4 1187.26 1269.07 1186.61 1262.73 1184.52C1256.42 1182.42 1251.3 1179.14 1247.36 1174.68C1243.46 1170.21 1240.98 1164.83 1239.91 1158.52L1254.43 1157.13C1255.23 1161.47 1257.05 1164.96 1259.9 1167.58C1262.78 1170.16 1266.27 1171.96 1270.37 1172.97C1274.51 1173.95 1278.89 1174.21 1283.5 1173.77C1288.86 1173.25 1293.6 1171.92 1297.7 1169.77C1301.8 1167.58 1304.95 1164.8 1307.14 1161.43C1309.33 1158.01 1310.22 1154.19 1309.82 1149.96C1309.44 1146.11 1308.07 1143.08 1305.68 1140.87C1303.29 1138.66 1300.27 1136.97 1296.61 1135.8C1292.95 1134.62 1289.02 1133.67 1284.83 1132.93L1270.15 1130.22C1260.83 1128.49 1253.29 1125.46 1247.53 1121.14C1241.77 1116.81 1238.52 1110.74 1237.76 1102.92C1237.14 1096.42 1238.35 1090.59 1241.4 1085.41C1244.48 1080.2 1248.88 1075.96 1254.6 1072.71C1260.34 1069.41 1266.92 1067.4 1274.33 1066.69C1281.81 1065.97 1288.6 1066.67 1294.68 1068.79C1300.75 1070.87 1305.71 1074.06 1309.56 1078.34C1313.44 1082.61 1315.76 1087.67 1316.51 1093.51L1302.9 1094.82Z" fill="black"/>
<path d="M1338.42 1062.12L1355.2 1060.5L1403.94 1153.02L1405.3 1152.89L1435.49 1052.77L1452.27 1051.16L1463.44 1167.19L1450.29 1168.46L1441.8 1080.3L1440.66 1080.41L1412.87 1172.06L1400.17 1173.29L1355.39 1088.62L1354.26 1088.73L1362.75 1176.89L1349.6 1178.15L1338.42 1062.12Z" fill="black"/>
<path d="M1496.4 1164.02L1481.65 1165.44L1513.12 1045.3L1527.63 1043.9L1581.44 1155.83L1566.7 1157.25L1522.6 1062.91L1521.69 1063L1496.4 1164.02ZM1497.47 1118.17L1556.89 1112.45L1558.09 1124.91L1498.67 1130.63L1497.47 1118.17Z" fill="black"/>
<path d="M1569.64 1052.44L1568.44 1039.97L1655.52 1031.59L1656.72 1044.05L1620.21 1047.57L1630.18 1151.14L1616.12 1152.49L1606.15 1048.92L1569.64 1052.44Z" fill="black"/>
</svg>
